HIERARCHY
ROOT Hips
{
	OFFSET 0.00000 0.00000 0.00000
	CHANNELS 6 Xposition Yposition Zposition Zrotation Yrotation Xrotation 
	JOINT LHipJoint
	{
		OFFSET 0 0 0
		CHANNELS 3 Zrotation Yrotation Xrotation
		JOINT LeftUpLeg
		{
			OFFSET 1.62964 -1.40469 0.78906
			CHANNELS 3 Zrotation Yrotation Xrotation
			JOINT LeftLeg
			{
				OFFSET 2.29640 -6.30932 0.00000
				CHANNELS 3 Zrotation Yrotation Xrotation
				JOINT LeftFoot
				{
					OFFSET 2.29451 -6.30412 0.00000
					CHANNELS 3 Zrotation Yrotation Xrotation
					JOINT LeftToeBase
					{
						OFFSET 0.03611 -0.09921 1.56387
						CHANNELS 3 Zrotation Yrotation Xrotation
						End Site
						{
							OFFSET 0.00000 -0.00000 0.80291
						}
					}
				}
			}
		}
	}
	JOINT RHipJoint
	{
		OFFSET 0 0 0
		CHANNELS 3 Zrotation Yrotation Xrotation
		JOINT RightUpLeg
		{
			OFFSET -1.73712 -1.40469 0.78906
			CHANNELS 3 Zrotation Yrotation Xrotation
			JOINT RightLeg
			{
				OFFSET -2.28137 -6.26801 0.00000
				CHANNELS 3 Zrotation Yrotation Xrotation
				JOINT RightFoot
				{
					OFFSET -2.28681 -6.28298 0.00000
					CHANNELS 3 Zrotation Yrotation Xrotation
					JOINT RightToeBase
					{
						OFFSET -0.15927 -0.43759 1.61103
						CHANNELS 3 Zrotation Yrotation Xrotation
						End Site
						{
							OFFSET -0.00000 -0.00000 0.84630
						}
					}
				}
			}
		}
	}
	JOINT LowerBack
	{
		OFFSET 0 0 0
		CHANNELS 3 Zrotation Yrotation Xrotation
		JOINT Spine
		{
			OFFSET -0.04227 2.04338 -0.00225
			CHANNELS 3 Zrotation Yrotation Xrotation
			JOINT Spine1
			{
				OFFSET -0.02148 2.04482 -0.04273
				CHANNELS 3 Zrotation Yrotation Xrotation
				JOINT Neck
				{
					OFFSET 0 0 0
					CHANNELS 3 Zrotation Yrotation Xrotation
					JOINT Neck1
					{
						OFFSET 0.09180 1.44629 0.19359
						CHANNELS 3 Zrotation Yrotation Xrotation
						JOINT Head
						{
							OFFSET 0.00887 1.40645 0.14750
							CHANNELS 3 Zrotation Yrotation Xrotation
							End Site
							{
								OFFSET -0.00669 1.50671 0.03707
							}
						}
					}
				}
				JOINT LeftShoulder
				{
					OFFSET 0 0 0
					CHANNELS 3 Zrotation Yrotation Xrotation
					JOINT LeftArm
					{
						OFFSET 2.17674 1.86763 -0.06520
						CHANNELS 3 Zrotation Yrotation Xrotation
						JOINT LeftForeArm
						{
							OFFSET 4.65776 -0.00000 0.00000
							CHANNELS 3 Zrotation Yrotation Xrotation
							JOINT LeftHand
							{
								OFFSET 3.55539 -0.00000 0.00000
								CHANNELS 3 Zrotation Yrotation Xrotation
								JOINT LeftFingerBase
								{
									OFFSET 0 0 0
									CHANNELS 3 Zrotation Yrotation Xrotation
									JOINT LeftHandIndex1
									{
										OFFSET 0.70726 -0.00000 0.00000
										CHANNELS 3 Zrotation Yrotation Xrotation
										End Site
										{
											OFFSET 0.57022 -0.00000 0.00000
										}
									}
								}
								JOINT LThumb
								{
									OFFSET 0 0 0
									CHANNELS 3 Zrotation Yrotation Xrotation
									End Site
									{
										OFFSET 0.57892 -0.00000 0.57892
									}
								}
							}
						}
					}
				}
				JOINT RightShoulder
				{
					OFFSET 0 0 0
					CHANNELS 3 Zrotation Yrotation Xrotation
					JOINT RightArm
					{
						OFFSET -2.80694 1.55459 -0.32496
						CHANNELS 3 Zrotation Yrotation Xrotation
						JOINT RightForeArm
						{
							OFFSET -4.71925 -0.00000 -0.00000
							CHANNELS 3 Zrotation Yrotation Xrotation
							JOINT RightHand
							{
								OFFSET -3.56990 -0.00000 0.00000
								CHANNELS 3 Zrotation Yrotation Xrotation
								JOINT RightFingerBase
								{
									OFFSET 0 0 0
									CHANNELS 3 Zrotation Yrotation Xrotation
									JOINT RightHandIndex1
									{
										OFFSET -0.50776 -0.00000 0.00000
										CHANNELS 3 Zrotation Yrotation Xrotation
										End Site
										{
											OFFSET -0.40937 -0.00000 0.00000
										}
									}
								}
								JOINT RThumb
								{
									OFFSET 0 0 0
									CHANNELS 3 Zrotation Yrotation Xrotation
									End Site
									{
										OFFSET -0.41562 -0.00000 0.41562
									}
								}
							}
						}
					}
				}
			}
		}
	}
}
MOTION
Frames: 6
Frame Time: .0083333
9.0294 14.0637 30.4865 178.9130 0.4482 -133.5710 0.0000 0.0000 0.0000 -1.8427 -25.7322 -72.5451 12.5588 18.6170 67.7496 2.3853 -15.5918 -28.2783 0.4734 -4.4127 -12.2406 0.0000 0.0000 0.0000 2.3943 27.6392 -70.0082 -11.2500 -18.0553 63.5908 -6.6139 0.8202 -48.9788 -2.8719 10.4847 -30.5610 -6.1340 -0.7860 -11.4909 -0.8552 -0.5252 -2.2800 2.4760 -0.4397 4.0872 1.9009 -1.8870 -4.0426 2.7154 -4.1391 -19.5258 0.7445 -3.1936 -5.2037 0.0000 -0.0000 0.0000 -75.8611 1.2467 28.5812 13.8365 -22.5004 -2.7652 -0.0000 -0.0000 2.7375 22.7422 -12.5040 -5.1856 -7.1250 0.0000 -0.0000 -3.1259 16.4720 2.1145 0.0000 -0.0000 0.0000 86.9632 -4.4863 16.6930 -19.1441 29.5973 -5.1018 0.0000 0.0000 0.5912 -15.1104 -49.1773 11.5483 7.1250 -0.0000 -0.0000 51.0916 -75.3458 -38.5793
9.0369 13.9721 30.4298 178.9150 0.6933 -133.6560 0.0000 0.0000 0.0000 -1.9526 -25.5043 -72.9608 13.0775 18.8100 69.3661 2.4460 -16.0619 -28.6917 0.4683 -4.3892 -12.1744 0.0000 0.0000 0.0000 2.1924 27.9803 -70.3735 -11.6813 -18.2526 64.9749 -6.6872 0.5816 -49.3142 -3.0594 10.7906 -31.5770 -6.2011 -0.9091 -11.0812 -1.1198 -0.1729 -2.3076 2.3057 -0.0283 3.8236 2.6575 -1.9350 -3.8818 2.4461 -4.2425 -19.7277 0.5470 -3.2880 -5.3170 0.0000 -0.0000 0.0000 -75.6577 0.6571 28.4858 13.3628 -21.8165 -2.5866 -0.0000 -0.0000 3.0416 23.0436 -12.7883 -5.3789 -7.1250 0.0000 -0.0000 -2.9312 16.1357 2.0038 0.0000 -0.0000 0.0000 87.5641 -3.9064 16.0806 -18.6439 28.9738 -4.8571 0.0000 0.0000 0.9798 -15.4548 -48.5629 11.7098 7.1250 -0.0000 -0.0000 48.7948 -75.1429 -36.4887
9.0428 13.8613 30.4235 178.8920 1.0110 -131.3890 0.0000 0.0000 0.0000 -0.6802 -25.3551 -76.8081 13.8461 19.0667 71.7339 2.5248 -16.3198 -29.1639 0.4592 -4.3469 -12.0548 0.0000 0.0000 0.0000 0.3212 28.2012 -74.4396 -12.4159 -18.5610 67.3011 -6.7421 0.1284 -49.6283 -3.3661 11.2653 -33.1799 -6.4566 -1.2323 -13.3065 -0.9803 -0.3305 -2.6958 2.5686 -0.0881 4.6596 2.2229 -1.8362 -3.7233 2.6000 -4.1795 -20.3901 0.6858 -3.2948 -5.5381 -0.0000 0.0000 0.0000 -76.2955 -0.2074 27.3914 12.8267 -21.0327 -2.3907 -0.0000 -0.0000 3.6754 23.3998 -13.1260 -5.6125 -7.1250 0.0000 -0.0000 -2.7034 15.7342 1.8711 -0.0000 0.0000 0.0000 87.2476 -2.7079 16.7173 -18.2440 28.4685 -4.6650 0.0000 0.0000 1.1101 -15.2732 -49.2236 11.6832 7.1250 -0.0000 -0.0000 51.1157 -75.4333 -38.6820
9.0417 13.7926 30.3269 178.7760 0.8743 -132.8300 0.0000 0.0000 0.0000 -1.5510 -25.6144 -74.9327 14.1065 19.1460 72.5294 2.5248 -16.8589 -29.2591 0.5010 -4.5377 -12.5945 0.0000 0.0000 0.0000 1.3591 28.0948 -72.4780 -12.6592 -18.6556 68.0636 -6.8464 -0.1434 -50.0874 -3.7005 11.7509 -34.8562 -6.4305 -1.1994 -11.4861 -0.9689 -0.4859 -2.5674 2.5471 -0.1659 3.8050 2.4436 -1.8052 -3.2130 2.3626 -4.1863 -20.8857 0.5980 -3.3228 -5.7902 0.0000 0.0000 0.0000 -76.5682 -0.1598 27.0422 12.4730 -20.5102 -2.2653 -0.0000 -0.0000 4.0226 23.5706 -12.7098 -5.4828 -7.1250 0.0000 -0.0000 -2.5629 16.1648 1.7498 0.0000 0.0000 0.0000 87.2758 -2.5845 17.1931 -18.0331 28.1995 -4.5649 0.0000 0.0000 1.2802 -14.8316 -48.5373 11.2239 7.1250 -0.0000 -0.0000 49.2458 -74.8895 -36.6254
9.0296 13.7254 30.2379 178.5460 0.3432 -133.9360 0.0000 0.0000 0.0000 -2.0813 -26.3852 -73.5331 14.3939 19.2292 73.4039 2.5166 -17.3902 -29.3156 0.5436 -4.7235 -13.1217 0.0000 0.0000 0.0000 2.2902 27.5584 -71.0111 -13.0137 -18.7871 69.1679 -6.9770 0.1137 -50.5192 -3.7709 11.8492 -35.2005 -6.0364 -0.9933 -11.0951 -1.0411 -0.7753 -1.7916 2.1895 -0.5627 4.4023 2.2424 -1.5443 -3.8341 2.7629 -3.8432 -20.8060 0.7317 -3.1917 -5.6483 -0.0000 -0.0000 0.0000 -76.6744 -1.2515 26.4062 12.1909 -20.0904 -2.1674 -0.0000 -0.0000 3.8704 23.0643 -12.6297 -5.3189 -7.1250 0.0000 -0.0000 -2.9089 16.3042 1.9779 -0.0000 -0.0000 0.0000 87.5162 -1.3127 17.4345 -17.7600 27.8488 -4.4366 0.0000 0.0000 1.5455 -15.3904 -48.5176 11.6521 7.1250 -0.0000 -0.0000 48.7050 -75.0926 -36.3690
9.0327 13.6549 30.1677 178.2670 0.8074 -133.7910 0.0000 0.0000 0.0000 -2.5101 -26.4203 -73.7538 14.7421 19.3239 74.4586 2.5469 -17.6021 -29.5179 0.5884 -4.9112 -13.6554 0.0000 0.0000 0.0000 1.6693 27.6792 -71.3397 -13.3192 -18.8944 70.1141 -6.9897 0.1138 -50.5667 -3.9181 12.0507 -35.9114 -6.5012 -1.3588 -11.0874 -1.1384 -0.7334 -1.9710 2.3708 -0.3338 4.2313 2.2850 -1.3727 -4.0143 2.6937 -3.6138 -20.6039 0.6863 -3.0689 -5.5567 -0.0000 0.0000 0.0000 -76.9656 -1.4170 26.2361 11.8820 -19.6274 -2.0625 -0.0000 -0.0000 4.7290 23.8307 -12.6878 -5.5411 -7.1250 0.0000 -0.0000 -2.3820 16.1609 1.6263 -0.0000 0.0000 0.0000 87.5975 -0.8576 17.7140 -17.4962 27.5073 -4.3140 0.0000 0.0000 1.9760 -16.2527 -48.5890 12.3330 7.1250 -0.0000 -0.0000 48.1937 -75.4661 -36.2888
